<svg id="Layer_1" data-name="Layer 1" xmlns="http://www.w3.org/2000/svg" viewBox="0 0 1896 1952"><defs><style>.cls-1{fill:#1a00bf;}</style></defs><title>Artboard 1</title><path class="cls-1" d="M798.43,1559.2c-4.29,7.35-8.75,14.6-12.81,22.07a67.92,67.92,0,0,1-17,20.61c-11.45,9.33-24.46,8.78-37.07,5.38-18.34-4.94-34.57-14.63-46.4-29.73-18.06-23.09-35.19-46.9-52.78-70.36-18.19-24.25-36.33-48.53-54.71-72.63-17.59-23.07-34.22-46.73-49-71.75-8.28-14-18.08-27.17-27.48-40.5-21.32-30.23-42.27-60.73-64.39-90.36-23.51-31.5-48.66-61.77-72.23-93.23-24.77-33-48.3-67-72.83-100.28-8.36-11.33-11.69-22.9-7.05-36.42.29-.83-.08-1.89-.2-3.67A41,41,0,0,0,279,1000c-8.65,4-17.35,3.63-24.54-2.24a365,365,0,0,1-31.7-28.82c-7.84-8.1-14.34-17.52-21.25-26.49C176.16,909.67,154,874.81,132.9,839.29c-17.05-28.7-30.29-59.29-42.13-90.47-6.15-16.19-11.89-32.54-18.6-48.49-8.84-21-15.06-42.57-17.34-65.34-1.72-17.21-4.69-34.28-6.65-51.47-1.47-12.88-2.5-25.83-3.23-38.78-1.57-27.55-4.26-55.14-3.84-82.68.58-37.22,2.13-74.5,11.38-111,11-43.44,25.16-85.53,47.36-124.7,10.51-18.53,19.77-37.76,30.31-56.26,10.23-18,24.81-31.24,45.15-37.16,12.05-3.51,23.09-1.85,32.48,7a16.88,16.88,0,0,1,5.66,12.33,78.47,78.47,0,0,1-3.25,24.6c-9,30.82-22,60-36.15,88.69a70.64,70.64,0,0,0-7.1,24.7c-1.44,14.21-4.48,28.26-6.5,42.42-1.15,8.1-1.63,16.29-2.42,24.44l2,.82c1.39-1.46,3.37-2.69,4.07-4.42,4.35-10.8,9.1-21.5,12.46-32.62a702.21,702.21,0,0,1,27.5-74.9,521.48,521.48,0,0,0,18.82-49.43,280.12,280.12,0,0,1,51.43-94.09C281.49,93.72,288,84.26,296,76.38c18.69-18.3,41.49-28.23,67.7-30.13a20.73,20.73,0,0,0,6.69-1.74c14.29-6.26,29.46-8.41,44.8-8.88,27.3-.84,54.69-2,81.64,4,27.59,6.17,53.27,16.94,76.08,33.83,11.47,8.49,23.14,16.91,30.36,30,2.18-1,3.48-1.27,4.46-2,19.63-14.56,40.07-14.09,61-3.29a60.63,60.63,0,0,1,8.45,5.32c20.28,15.25,37.73,33.3,47.06,57.11,5,12.8,6.41,27.06,9,40.74,1.82,9.47,2.88,19.08,4.46,28.6.24,1.45,1.44,2.74,2,3.71,5.17-4.21,9.54-8.85,14.83-11.85,12.84-7.28,25.88-3.94,38.47,1.19,14.06,5.74,25.82,15.07,37.13,25,15.37,13.52,28.13,29.31,40.23,45.68,26.62,36,50.51,73.66,68.31,114.88,11.46,26.56,23.63,52.91,29.67,81.47a36.33,36.33,0,0,0,2.31,6.57c.36.84,1.21,1.46,3.15,3.7.84-5.33,1.86-9.31,2-13.32,1.26-29.87,13.09-56.12,27.52-81.52,19.16-33.72,42.23-64.64,66.43-94.87,15.46-19.31,31.23-38.24,49.73-54.62a275.74,275.74,0,0,1,33.93-26.19c16.82-10.75,35.48-13.23,54.52-6.19,5.65,2.09,10.52,6.31,16.73,10.16,1.18-2.41,2.59-5.24,4-8.08,9-18.57,17.06-37.68,27.2-55.61,21.84-38.63,56.64-58.87,99.52-66.18,9.47-1.62,19.22-1.5,28.81-2.46,13.28-1.32,25,2.69,35.74,10.09a82.37,82.37,0,0,0,7.4,4c1.19-5,2.13-9.19,3.14-13.31,5-20.58,29.36-33.72,49.4-26.71,24,8.4,34.94,23.47,33.8,49.21-.79,17.92-3.39,35.76-5.1,53.64a151.78,151.78,0,0,0-1.13,16.91c.47,25.3,1.54,50.6,1.75,75.9.18,22-1.07,44-.6,66,.27,12.58,2.15,25.21,4.31,37.64,3.64,21,8,41.82,12.23,62.7a21.11,21.11,0,0,0,4.91,10c.66-1.61,1.82-3.2,1.92-4.85,2.89-52.2,5.6-104.41,8.56-156.61.79-13.94,2.45-27.83,3.43-41.77.53-7.63.37-15.31.72-23,.57-12.28,1.06-24.58,2-36.83,1.74-21.89,4-43.73,5.68-65.62,1.31-17.63,16.14-25.31,30.49-25a21.21,21.21,0,0,1,15.08,6.79c6.75,6.85,10.83,15,13.38,24.18,4.73,17,4.45,34.22,3.37,51.58-1.28,20.61-2.27,41.24-3.32,61.86-.08,1.58.39,3.19.87,6.81,2.54-3.14,4.13-4.91,5.5-6.84,8.65-12.2,17.22-24.46,25.9-36.63a64,64,0,0,1,4.71-5.17c15.24-17,34.93-21.43,56.38-18.35,6.86,1,14,5,19.5,9.42a174.87,174.87,0,0,1,25.67,25c18.51,22.76,30.39,49.18,39.59,76.87,18.93,56.95,33.87,114.91,43.47,174.18,2.55,15.78-.14,31.23-5.61,46.11-2.72,7.39-7.4,13.42-15,16.55-9.48,3.9-25.48-.19-32.4-9.41-5.74-7.66-11.53-15.81-14.86-24.66-9.38-24.9-17.18-50.4-26.22-75.43q-13.23-36.63-27.78-72.77c-4.49-11.17-10.88-21.41-21.12-28.55-6.33-4.41-10.24-3.28-13,3.89a15.89,15.89,0,0,0-1.29,5.8c.39,21.94-1.89,44.12,4.21,65.59,7,24.76,18,47.88,29.87,70.71,16.83,32.3,39.27,61.08,56.78,92.9,3.69,6.71,7.81,13.17,11.72,19.76,7.12,12,14.07,24.14,21.38,36,8.59,14,13,28.7,12.45,45.43-1.11,32.72-9.08,63.82-19.93,94.37-9.47,26.67-18,53.74-29.2,79.68-11.3,26.27-24.68,51.8-42,74.75a133,133,0,0,1-24.64,24.62c-18,13.9-38.4,17.92-60.18,9.39a30.83,30.83,0,0,1-11.5-7.58c-8-8.92-15.53-18.22-19.68-29.83a89,89,0,0,0-12.14-23.77c-.59,4.33-1.25,6.73-1.19,9.12.25,10,1.21,20,1,30-.27,11.67-1.8,23.24-11.81,32.68,3.65,1.31,5.68,2.26,7.81,2.77,8.09,2,16.15,4.06,24.33,5.56,21.4,3.91,36.55,16.57,48.84,33.71,4.59,6.4,5,13.19,2.5,19.9a86.83,86.83,0,0,1-9.93,19.48c-16.35,23.13-32.8,46.2-50,68.72-13.22,17.36-29.14,31.94-48.94,41.93-9.51,4.79-18.56,10.48-27.91,15.62a26.61,26.61,0,0,1-19.2,2.73c-10-2.08-15.71-6.9-18.12-17.12-2.33-9.93-8.61-17.74-16.87-24.06-17.43-13.35-37.34-20.26-58.77-23.18-25.59-3.48-51.51-4.4-76.53,1.76-29.54,7.28-57.74,18.81-80.28,40.49-6.19,6-12.3,12.51-16.59,19.87-14.37,24.73-24.38,50.88-24,80.24.26,22.41,7.58,42.38,18.73,61.32.17.29.36.57.55.84,16.32,23.19,37.32,13.38,46.61-3,7.92-14,12-29.18,6.54-46-4.65-14.23-5.94-29.31-5.3-44.44.7-16.46,7.59-30.22,18.41-42.1a31.39,31.39,0,0,1,11.42-7.81c24.17-9.31,49.37-12.63,74.49-6.28,23.09,5.84,40.07,19.86,47.5,44,4.32,14.06,8.39,28,9.23,42.76,1,18.21-5.18,34.83-11.07,51.33a425.05,425.05,0,0,1-20.69,48.67c-14.71,29.13-30.75,57.57-45.78,86.53-14.79,28.49-33.69,54.29-51.52,80.8a270.39,270.39,0,0,1-34.89,42.37c-7.11,7-13.16,15-22.22,19.84-14,7.51-28.34,10.26-44.26,6.83-30.22-6.5-53.15-23.61-72.13-47.06l-7.41-9.14c0,3.87-.4,5.7.08,7.26,1.86,6,3.56,12.19,6.11,18,11,24.84,13.27,51.42,15.67,77.94,1.61,17.9,3.58,35.85,3.54,53.78,0,14.2-2.53,28.45-4.6,42.59-1.86,12.76-7.6,24.13-15.22,34.41-18.7,25.23-34.48,52.29-49.73,79.63-11.43,20.51-27.29,36.88-44.73,52-10.56,9.15-22.91,11.7-36.44,7.69-7.59-2.25-13-6.76-14.61-14.83-1.17-5.86-3-11.81-2.81-17.67.46-16.61.6-33.37,3-49.76,6.93-47.73,15.75-95.2,22.09-143,3.14-23.65,2.94-47.8,3.37-71.74.29-16.28.08-32.7-4.38-48.62a151.33,151.33,0,0,0-5.15-15.08c-8.56-21.45-36-22.6-48.82-11.85a80.19,80.19,0,0,0-9.49,8.84c-14,16.12-24.27,34.19-28.47,55.31a78.74,78.74,0,0,0-1.45,13.87,666.63,666.63,0,0,0,3.59,85.82c2.09,19.17,3.31,38.51,6.7,57.45C938.11,1764,944,1789,950,1813.85c4.07,16.79,10.77,33,12.16,50.37.69,8.61.71,17.27,1,25.91a6.15,6.15,0,0,1-.22,2c-1.67,5.75-2.69,12.32-9.43,14.25-7.13,2-13.07-.93-17.59-6.63-10.57-13.3-21.07-26.67-31.67-40-6.44-8.06-12.86-16.16-19.56-24-14.49-17-29.52-33.51-43.57-50.84-5.56-6.87-9.61-15.13-13.39-23.21-4.22-9-7-18.7-11-27.86-11.49-26.46-15.34-54.46-15.82-82.88-.5-29,.43-58,.69-87a17.84,17.84,0,0,0-.74-3.7ZM971.35,565.52,968.9,565a148.25,148.25,0,0,1-47.09,49.5c-7.57,5-15.43,9.4-24.73,10-15,.88-29.94,1.88-44.46-3.44-2.06-.76-4.45-.59-8-1-.1,5.14-.36,9.65-.25,14.15.5,20.62,1.65,41.23,1.52,61.85-.14,22-1.57,43.91-2.21,65.87-.38,13.31.21,26.67-.57,40a493.52,493.52,0,0,0-.21,57.82c1.56,27.23.71,54.61.68,81.93,0,18.86-8.89,33.73-21.89,46.58-6.94,6.88-15.62,9.11-24.82,7.71-20.91-3.19-34.06-16.62-43.28-34.64a16.39,16.39,0,0,1-1.32-5.81c-1.24-12.56-2.33-25.14-3.6-37.71a53.22,53.22,0,0,0-1.63-6.93c-5.78,5.49-9.14,11.54-13.3,17a94.63,94.63,0,0,1-13.46,14.68A84.25,84.25,0,0,1,702.86,954c-5.9,2.88-12.49,4.48-18.92,6.12s-13.27-1.82-19.7,1.67c8,1.75,16,3.19,24,3.28,18.66.21,36.06,4.76,53,12.4,26.46,11.92,52.9,23.81,75.81,42,24.92,19.79,42.73,44.74,51.43,75.51a327.37,327.37,0,0,1,8.92,42c5.21,35.62,8.51,71.41,5.11,107.48-.15,1.54.94,3.2,2.18,7.09,2.67-6.43,4.55-10.61,6.16-14.9,4.8-12.77,9.08-25.75,14.29-38.35C929,1140.72,949.28,1082,962.6,1021c1.38-6.3,4.73-9.78,10.66-11.85,2.78-1,7-.34,8.09-5-2.15-1.93-4.3-4-6.57-5.87-7.1-6-8.85-13.64-7.84-22.48a153.4,153.4,0,0,0,1.28-18.8c-.06-7-1.07-13.94-1.39-20.92-.93-20.28-1.47-40.59-2.65-60.86-1.17-19.93-3.08-39.82-4.43-59.74-1.82-26.89-4.53-53.77-4.81-80.68-.27-25.25,1.34-50.59,3.61-75.76,2-22.16,6.08-44.13,9.18-66.19C969,583.72,970.15,574.61,971.35,565.52Zm257.28,415.87c-7.09-2-12.08-3.67-17.17-4.89-22.6-5.44-40.52-17.76-54.92-35.89-11.51-14.5-19.62-30.82-27.46-47.41-24.15-51.15-36.72-105-34-161.48,1.48-31.13,7.11-62.05,10.54-93.1,2.55-23.14,4.61-46.34,6.76-69.53.25-2.7-.34-5.48-.66-9.84-4.28,2.7-7,4.54-9.75,6.14-10.39,6-20.4,12.83-31.36,17.46-9,3.79-11.82,9-11.37,18.26,1,20.6,1.94,41.26,1.66,61.88-.38,28-2.14,55.88-2.93,83.83-1,36.29-.9,72.62-2.75,108.86-2,39.54-.69,79.22-5.58,118.67-2,15.88-9,26.76-24.42,31.61-2.72.86-5.45,1.67-9.05,2.77,1.9,2.82,3,4.75,4.4,6.49,6.09,7.7,10.7,16.23,12.28,25.89,3.75,23,8,45.91,10.24,69,3.49,36.11,7.06,72.16,14.48,107.71.49,2.34,1.76,4.52,2.66,6.77a12.1,12.1,0,0,0,2.57-7c1.53-25,4.79-49.65,12-73.71,4.35-14.63,7-29.86,15.41-43,16-25.12,34.08-48.49,57-67.76,23.25-19.52,46.6-38.9,76.45-47.94C1224.74,984.83,1225.63,983.69,1228.63,981.39Zm-866.35-244c.35-4.93.7-7.21.64-9.48-.81-32.28-1.49-64.58-2.6-96.85-.91-26.62-2.4-53.22-3.51-79.83-1.1-26.28-2.54-52.56-2.93-78.85-.66-43.95-.56-87.92-.86-131.88q-.27-40.42-.84-80.86c-.05-3.35-1.18-6.68-1.81-10l-2.61-.37c-4.62,8.32-9.61,16.45-13.79,25C308.35,326.59,283,379,257.4,431.39c-15.33,31.38-32.13,62.08-42.83,95.58-2,6.29-2,11.27,1.38,16.87,20.34,33.62,39.79,67.8,60.89,100.93,20.51,32.2,46.71,59.77,75.17,85.15,2.61,2.33,5.67,4.16,10.27,7.49ZM677.5,527.21a999.09,999.09,0,0,0-5.24-112.76,295.13,295.13,0,0,0-11.39-57.67c-1.93-6.22-4.83-11.67-9.93-15.81-5.91-4.8-11.76-6.34-19.25-2.4-6.24,3.28-11.14,7.41-14.05,13.53a163.84,163.84,0,0,0-8.07,20.38c-6.22,19.45-8.38,39.63-10.9,59.8-3.06,24.49-6.11,49-5.17,73.65,1,27.95,2.36,55.91,4.3,83.81a389.66,389.66,0,0,0,5.71,44.51c3.54,19,8.36,37.67,12.56,56.5,5.64,25.25,14.75,49.08,29.22,70.64,1.68,2.5,5.32,6.14,7,5.66,3.38-1,6.3-4.21,8.88-7,1.18-1.28,1.31-3.71,1.54-5.66,1.44-12.23,3-24.44,4.09-36.7,2.73-31.84,5.82-63.68,7.6-95.58C676.18,590.52,676.53,558.85,677.5,527.21Zm682,300.48c1.92-71.19,10-141.64,16-213.48-4.21,1.21-6.71,1.8-9.13,2.63-30,10.3-60.38,18.33-92.34,19.84-16.74.79-32.94,4.88-46.92,15.12-5.26,3.85-9.71,7.94-9.89,15.19-.5,20.31-1.64,40.6-1.74,60.9a153.25,153.25,0,0,0,12.17,60.3c11.2,26.79,29.48,37.66,58.33,34.82,1-.09,2-.28,3-.41,15.94-2.12,31.9-2.48,47.79.17,7,1.23,14,3,22.69,4.92Zm44.69-553.34-2.58-1.13c-4.55,4.16-8.58,9.13-13.73,12.3-14.42,8.87-29.06,17.42-44,25.31-55,29-86.5,88.3-78.54,148.07,2.48,18.6,12.53,30.73,30.48,35.18,11.85,2.94,24.17,4.13,36.34,5.61,7.89,1,15.92.79,23.84,1.6,8.45.86,16.85,2.29,25.86,3.55,7.43-77.38,14.86-153.93,22.29-230.49ZM550.57,1168.12c-11.49-1.49-21.05,2.36-29.49,9.76-8.91,7.81-10.47,16.63-4.18,26.6a188.32,188.32,0,0,0,11,15.47c24.22,30.91,48.81,61.53,72.7,92.69,13.14,17.14,25.1,35.19,37.69,52.76a41.21,41.21,0,0,0,6.6,7.42c6,5.08,9.72,4.75,14-1.74,3.27-5,5.73-10.49,8.41-15.83,6.31-12.6,7.67-26.1,6.12-39.81-3.54-31.19-14.51-60.09-29.4-87.39-6.15-11.27-13.38-22.78-22.75-31.28C601.48,1178.86,577.11,1170.16,550.57,1168.12ZM1608.39,424.69l-2.55.83c-2.72,24.81-2.73,49.66-1.41,74.6.7,13.26,1.18,26.66.11,39.87-1,12,.29,23.17,4.9,34.13,1.54,3.68,3,7.42,4.24,11.19,9.33,27.38,18,55,28.11,82.11,8.35,22.43,18.13,44.33,34.59,62.46,4.88,5.38,10,9.66,17.42,10.62,4.63.61,7.87-1,8.81-5.88.75-3.92,1.76-7.85,1.91-11.8.89-23.61,1.85-47.22,2.13-70.83a41.18,41.18,0,0,0-3.72-17.31c-5.19-11.13-10.78-22.22-17.57-32.43-11.58-17.42-24.2-34.06-32-53.82s-16.66-39.11-24.9-58.71c-7.38-17.55-11.73-36-16.11-54.46C1611.5,431.63,1609.74,428.21,1608.39,424.69ZM1477.88,620.94c-5.35,9.09-5.76,17.88-6.2,26.14-1.28,23.89-1.53,47.84-2.09,71.76-.69,29.25-.25,58.57-2.21,87.72-2.38,35.51-6.43,70.92-10.49,106.29-1,9.11-4.7,17.95-7.43,26.82-.93,3-2.71,5.73-5,10.35,12.58-.86,23.43-1.67,34.29-2.33,10.63-.65,21.26-1.38,31.89-1.66s21.52,3.2,33.57.86c-2.18-2.84-3.48-5.08-5.28-6.79-7-6.66-10.91-15.1-13.67-24.06a163.37,163.37,0,0,1-4.55-19.42c-7.45-41.91-13.93-83.94-19-126.26-5.65-47.53-14-94.74-21.24-142.08C1480.25,626.23,1479.14,624.31,1477.88,620.94ZM961.42,1441.73v-.21c3,0,6,.25,9,0,11.56-1.15,23.24-1.78,34.62-3.92,10.6-2,13.72-6.9,13.66-17.54,0-3.33-.19-6.66-.47-10-2.22-26-7.89-51.24-15.82-76-4.15-13-9.11-25.68-14.5-38.17-4.67-10.84-13.52-12.47-22.46-4.77a26.86,26.86,0,0,0-6.3,7.65,182.25,182.25,0,0,0-9.68,20.72c-3,8.08-4.9,16.57-7.67,24.75-7.84,23.15-11.81,47-13.52,71.32-.37,5.17.92,10.53,2,15.71,1.09,5.42,4.5,8.8,10.3,9.18C947.5,1440.91,954.46,1441.31,961.42,1441.73ZM351.05,966.24c-57.54-76.4-110.47-155-163.14-234.34-1.2,3-1.82,5.88-1.15,8.4a105.31,105.31,0,0,0,5.5,16c12.53,27.53,24.79,55.21,38.12,82.35,8.48,17.28,18.29,33.94,28.19,50.47,6.49,10.81,14.49,20.71,21.32,31.33,11,17.1,21.69,34.4,22.67,55.64.05,1.08,1.27,2.12,1.87,3.06Zm81.88-654.49c11.52-4.37,20.94-8.33,27.3-16.14,9.39-11.54,19.21-23.19,26-36.27,12.27-23.55,11.45-47.94-1.13-71.67-3.94-7.43-9.57-12.91-17.68-15.06-6.69-1.77-13.58-3.37-20.45-3.68-11.53-.51-13.25,1.46-13.34,13.07-.19,22.26.07,44.54-.3,66.8-.28,16.26-1.41,32.51-1.88,48.77C431.35,301.69,432.29,305.83,432.93,311.75Zm78.66,289.09,2.6-.89c-6.33-66.92-8.71-133.84.15-200.89-12.46,12.57-23.47,25.89-35.78,37.88-12.52,12.21-26.31,23.12-39.79,34.8l2.89,4.44c10.86,16.72,22.56,33,32.36,50.3,10.63,18.79,19.49,38.58,29.15,57.92,2.75,5.51,5.61,11,8.42,16.44Zm543.76-94.51c3.06-.71,4.18-.67,4.91-1.19,16.87-11.77,34.07-23.12,50.43-35.56,15.57-11.85,20.22-29.07,19.87-47.85-.16-8.38-5.57-12.9-13.8-11.63a35.83,35.83,0,0,0-11.18,3.89,154.22,154.22,0,0,0-44.6,36.28c-3.84,4.51-5.9,9.34-5.61,15.43.35,7.29,0,14.62,0,21.93,0,5.9,0,11.8,0,18.7ZM528.46,955.83c-3.67-4.27-5.7-6.4-7.46-8.73-5.21-6.89-11.29-13.34-15.28-20.88-12.46-23.5-25.31-46.89-33-72.58-.48-1.59-1.82-2.92-4-6.32-1,7.12-1.53,11.95-2.31,16.75-2.82,17.39-6.17,34.72-8.44,52.18-1.75,13.39-5,26.07-11.65,37.86-.71,1.26-.58,3-.88,4.8ZM821.3,375c-.62,4.07-1.61,7.85-1.69,11.65-.27,13.3.11,26.62-.44,39.9-.36,8.51,1.46,15.4,8.24,21.19,4.23,3.61,7.09,8.76,10.87,12.95C846.06,469.3,854,477.84,862,486.2c2.12,2.19,5,3.6,7.52,5.31,4.74-4.49,4.65-9.17,4.71-13.81.29-22.34-5.09-43.43-14.32-63.6-5-10.92-10.75-21.43-19.62-29.81C835.27,379.52,830,375.05,821.3,375Zm574.08,580.38-16-22.47c-9.18,9.37-18.4,18.76-28.75,29.31,16-.35,29.84-5,44.75-6.86Z"/></svg>